<svg width="230" height="178" viewBox="0 0 230 178" fill="none" xmlns="http://www.w3.org/2000/svg">
<path d="M113.908 0.0878402C91.9831 1.45279 74.1447 19.3265 72.7825 41.295C71.1908 66.9273 91.4813 88.2062 116.719 88.2062C117.049 88.2062 117.364 88.1918 117.68 88.1775L116.719 102.272C116.504 105.448 118.11 106.152 120.304 103.853L135.59 87.7033L143.161 79.7148C143.347 79.5136 147.52 75.5768 150.445 71.8699C158.39 61.7836 160.741 57.2146 160.741 44.0967C160.727 18.8236 139.49 -1.507 113.908 0.0878402ZM134.772 63.5653C134.242 64.14 133.181 65.0739 132.621 65.5911L128.377 69.959L118.927 79.6717C117.579 81.0654 116.575 80.6343 116.719 78.7234L117.307 70.2463C117.106 70.2463 116.905 70.2607 116.705 70.2607C101.117 70.2607 88.5847 57.4445 89.5598 42.0134C90.4058 28.7949 101.419 18.0334 114.969 17.2144C130.772 16.2517 143.907 28.4932 143.907 43.7088C143.907 51.6112 139.906 58.1198 134.772 63.5653Z" fill="#FFA235"/>
<path d="M5.26518 162.105C1.75506 162.105 0 160.293 0 156.668V124.555C0 120.986 1.72675 119.202 5.18026 119.202C8.63376 119.202 10.3605 120.986 10.3605 124.555V126.254C11.606 123.988 13.3328 122.232 15.5408 120.986C17.7487 119.684 20.2964 119.032 23.1838 119.032C29.4114 119.032 33.4877 121.751 35.4126 127.188C36.7147 124.64 38.583 122.657 41.0174 121.241C43.4519 119.769 46.226 119.032 49.3398 119.032C58.6813 119.032 63.352 124.725 63.352 136.109V156.668C63.352 160.293 61.5686 162.105 58.0019 162.105C54.4918 162.105 52.7367 160.293 52.7367 156.668V136.533C52.7367 133.362 52.1989 131.04 51.1232 129.567C50.1041 128.094 48.349 127.358 45.858 127.358C43.0839 127.358 40.9042 128.349 39.319 130.332C37.7338 132.257 36.9412 134.948 36.9412 138.402V156.668C36.9412 160.293 35.1861 162.105 31.676 162.105C28.1093 162.105 26.3259 160.293 26.3259 156.668V136.533C26.3259 133.362 25.788 131.04 24.7124 129.567C23.6933 128.094 21.9665 127.358 19.5321 127.358C16.758 127.358 14.5783 128.349 12.9931 130.332C11.4079 132.257 10.6153 134.948 10.6153 138.402V156.668C10.6153 160.293 8.83191 162.105 5.26518 162.105Z" fill="white"/>
<path d="M93.4954 162.275C88.7963 162.275 84.7484 161.397 81.3515 159.642C77.9546 157.886 75.322 155.394 73.4537 152.165C71.6421 148.937 70.7362 145.114 70.7362 140.696C70.7362 136.392 71.6138 132.625 73.3688 129.397C75.1805 126.169 77.6432 123.648 80.757 121.836C83.9275 119.967 87.5225 119.032 91.5422 119.032C97.4301 119.032 102.073 120.901 105.469 124.64C108.923 128.378 110.65 133.475 110.65 139.932C110.65 142.027 109.291 143.075 106.573 143.075H80.9269C81.7195 150.495 85.9656 154.204 93.6652 154.204C95.1372 154.204 96.779 154.034 98.5907 153.695C100.459 153.298 102.214 152.647 103.856 151.741C105.328 150.891 106.573 150.636 107.592 150.976C108.612 151.259 109.319 151.854 109.716 152.76C110.168 153.666 110.225 154.686 109.885 155.819C109.602 156.895 108.81 157.829 107.508 158.622C105.526 159.868 103.233 160.803 100.629 161.426C98.0812 161.992 95.7034 162.275 93.4954 162.275ZM91.9668 126.254C88.853 126.254 86.3336 127.217 84.4087 129.142C82.4838 131.068 81.3232 133.673 80.9269 136.958H101.818C101.591 133.503 100.629 130.87 98.9304 129.057C97.2886 127.188 94.9674 126.254 91.9668 126.254Z" fill="white"/>
<path d="M123.217 162.105C119.594 162.105 117.782 160.293 117.782 156.668V124.555C117.782 120.986 119.509 119.202 122.963 119.202C126.416 119.202 128.143 120.986 128.143 124.555V127.188C130.181 122.317 134.54 119.599 141.221 119.032C143.655 118.749 145.014 120.137 145.297 123.195C145.58 126.197 144.108 127.868 140.881 128.208L139.013 128.378C132.049 129.057 128.568 132.625 128.568 139.082V156.668C128.568 160.293 126.784 162.105 123.217 162.105Z" fill="white"/>
<path d="M155.029 162.105C151.519 162.105 149.764 160.293 149.764 156.668V106.204C149.764 102.636 151.519 100.852 155.029 100.852C158.596 100.852 160.38 102.636 160.38 106.204V137.553H160.549L174.562 122.771C175.694 121.638 176.685 120.76 177.534 120.137C178.383 119.514 179.544 119.202 181.016 119.202C182.488 119.202 183.592 119.599 184.328 120.392C185.12 121.128 185.517 122.034 185.517 123.11C185.517 124.186 185.007 125.263 183.988 126.339L171.25 139.762L185.432 155.054C186.451 156.13 186.904 157.235 186.79 158.367C186.734 159.443 186.281 160.35 185.432 161.086C184.582 161.766 183.507 162.105 182.205 162.105C180.619 162.105 179.346 161.794 178.383 161.171C177.477 160.548 176.458 159.613 175.326 158.367L160.549 142.905H160.38V156.668C160.38 160.293 158.596 162.105 155.029 162.105Z" fill="white"/>
<path d="M203.058 177.397C201.133 177.397 199.802 176.69 199.066 175.274C198.33 173.858 198.359 172.243 199.151 170.431L203.992 159.727L189.47 126.254C188.677 124.385 188.677 122.742 189.47 121.326C190.263 119.91 191.82 119.202 194.141 119.202C195.443 119.202 196.49 119.514 197.283 120.137C198.076 120.703 198.783 121.808 199.406 123.45L209.597 148.937L220.042 123.365C220.665 121.779 221.401 120.703 222.25 120.137C223.099 119.514 224.232 119.202 225.647 119.202C227.459 119.202 228.732 119.91 229.468 121.326C230.204 122.742 230.176 124.356 229.384 126.169L208.747 173.32C208.011 174.905 207.219 175.982 206.37 176.548C205.52 177.114 204.416 177.397 203.058 177.397Z" fill="white"/>
</svg>
