<svg width="21" height="21" viewBox="0 0 21 21" fill="none" xmlns="http://www.w3.org/2000/svg">
<path d="M15.75 1.75006C14.3106 1.75006 13.125 2.93568 13.125 4.37506C13.125 4.54215 13.1441 4.70504 13.1746 4.86383L6.93164 8.50568C6.47372 8.11818 5.89057 7.87506 5.25 7.87506C3.81062 7.87506 2.625 9.06068 2.625 10.5001C2.625 11.9394 3.81062 13.1251 5.25 13.1251C5.89057 13.1251 6.47372 12.8819 6.93164 12.4944L13.1746 16.1346C13.1439 16.2939 13.125 16.4574 13.125 16.6251C13.125 18.0644 14.3106 19.2501 15.75 19.2501C17.1894 19.2501 18.375 18.0644 18.375 16.6251C18.375 15.1857 17.1894 14.0001 15.75 14.0001C15.109 14.0001 14.5264 14.2445 14.0684 14.6324L7.82544 10.9888C7.85593 10.83 7.875 10.6671 7.875 10.5001C7.875 10.333 7.85593 10.1701 7.82544 10.0113L14.0684 6.36945C14.5263 6.75694 15.1094 7.00006 15.75 7.00006C17.1894 7.00006 18.375 5.81445 18.375 4.37506C18.375 2.93568 17.1894 1.75006 15.75 1.75006ZM15.75 3.50006C16.2436 3.50006 16.625 3.88145 16.625 4.37506C16.625 4.86867 16.2436 5.25006 15.75 5.25006C15.2564 5.25006 14.875 4.86867 14.875 4.37506C14.875 3.88145 15.2564 3.50006 15.75 3.50006ZM5.25 9.62506C5.74361 9.62506 6.125 10.0064 6.125 10.5001C6.125 10.9937 5.74361 11.3751 5.25 11.3751C4.75639 11.3751 4.375 10.9937 4.375 10.5001C4.375 10.0064 4.75639 9.62506 5.25 9.62506ZM15.75 15.7501C16.2436 15.7501 16.625 16.1314 16.625 16.6251C16.625 17.1187 16.2436 17.5001 15.75 17.5001C15.2564 17.5001 14.875 17.1187 14.875 16.6251C14.875 16.1314 15.2564 15.7501 15.75 15.7501Z" fill="#211C70"/>
</svg>
