<svg width="22" height="22" viewBox="0 0 22 22" fill="none" xmlns="http://www.w3.org/2000/svg">
<path d="M3.70803 18.6904C3.60712 19.2475 4.17377 19.6828 4.67315 19.4344L10.3526 16.6041L16.0308 19.4344C16.5302 19.6828 17.0968 19.2475 16.9959 18.6917L15.9221 12.7576L20.4786 8.54724C20.9055 8.1533 20.6856 7.43318 20.1138 7.35539L13.7771 6.48221L10.9516 1.05368C10.8978 0.943643 10.8129 0.850672 10.7067 0.785571C10.6006 0.720471 10.4776 0.685913 10.352 0.685913C10.2264 0.685913 10.1034 0.720471 9.99721 0.785571C9.89106 0.850672 9.80615 0.943643 9.75232 1.05368L6.92682 6.48347L0.59015 7.35665C0.0196169 7.43443 -0.20161 8.15456 0.224026 8.54849L4.78182 12.7588L3.70803 18.693V18.6904ZM10.0538 15.219L5.28508 17.5952L6.18293 12.6309C6.20396 12.5166 6.19573 12.3991 6.15896 12.2886C6.12219 12.1781 6.05801 12.0781 5.97205 11.9973L2.21248 8.52214L7.45466 7.79951C7.56321 7.78362 7.66617 7.74244 7.75472 7.67951C7.84327 7.61659 7.91477 7.53378 7.9631 7.4382L10.35 2.84897L12.7395 7.4382C12.7879 7.53378 12.8594 7.61659 12.9479 7.67951C13.0365 7.74244 13.1394 7.78362 13.248 7.79951L18.4901 8.52089L14.7306 11.9961C14.6444 12.077 14.5801 12.1772 14.5433 12.2879C14.5066 12.3986 14.4984 12.5164 14.5197 12.6309L15.4175 17.5952L10.6489 15.219C10.5567 15.1729 10.4544 15.1489 10.3507 15.1489C10.2469 15.1489 10.1447 15.1729 10.0525 15.219H10.0538Z" fill="#FEB931"/>
</svg>
