<svg width="33" height="32" viewBox="0 0 33 32" fill="none" xmlns="http://www.w3.org/2000/svg">
<g clip-path="url(#clip0)">
<path d="M11.0427 10.238L15.5472 1.584C15.6337 1.40991 15.7689 1.26287 15.9373 1.15962C16.1058 1.05637 16.3008 1.00107 16.5001 1C16.8775 1 17.2549 1.194 17.4591 1.584L21.9636 10.238L32.0658 11.63C32.3176 11.6684 32.548 11.7898 32.7182 11.9738C32.8884 12.1578 32.988 12.3931 33.0001 12.64C33.0142 12.8043 32.99 12.9697 32.9293 13.1237C32.8686 13.2778 32.7729 13.4166 32.6494 13.53L25.3833 20.242L27.0951 29.702C27.256 30.588 26.3526 31.282 25.5565 30.886L16.5001 26.374L7.44775 30.886C7.35308 30.9337 7.25158 30.9674 7.14663 30.986C6.44331 31.106 5.76888 30.478 5.90913 29.702L7.621 20.242L0.356874 13.53C0.244317 13.4262 0.154936 13.3011 0.0942687 13.1625C0.0336015 13.0239 0.00294099 12.8746 0.00418689 12.724C0.00471631 12.5112 0.0645792 12.3025 0.177437 12.12C0.258697 11.9881 0.369453 11.8757 0.501534 11.7908C0.633614 11.706 0.783647 11.6511 0.940562 11.63L11.0427 10.238ZM16.5001 24.054C16.6651 24.054 16.8301 24.09 16.9786 24.166L24.5809 27.954L23.1496 20.04C23.1158 19.8578 23.1289 19.6704 23.1875 19.4943C23.2461 19.3181 23.3486 19.1587 23.4858 19.03L29.4794 13.49L21.1221 12.338C20.9491 12.3127 20.7849 12.247 20.6438 12.1467C20.5026 12.0464 20.3886 11.9144 20.3116 11.762L16.5042 4.446L16.5001 4.452V24.052V24.054Z" fill="#FEB931"/>
</g>
<defs>
<clipPath id="clip0">
<rect width="33" height="32" fill="white"/>
</clipPath>
</defs>
</svg>
